<svg width="24" height="24" viewBox="0 0 24 24" fill="none" xmlns="http://www.w3.org/2000/svg">
<path fill-rule="evenodd" clip-rule="evenodd" d="M17 8C17.5523 8 18 7.55228 18 7C18 6.44772 17.5523 6 17 6C16.4477 6 16 6.44772 16 7C16 7.55228 16.4477 8 17 8Z" fill="white"/>
<path fill-rule="evenodd" clip-rule="evenodd" d="M16 2H8C4.68629 2 2 4.68629 2 8V16C2 19.3137 4.68629 22 8 22H16C19.3137 22 22 19.3137 22 16V8C22 4.68629 19.3137 2 16 2ZM4 8C4 5.79086 5.79086 4 8 4H16C18.2091 4 20 5.79086 20 8V16C20 18.2091 18.2091 20 16 20H8C5.79086 20 4 18.2091 4 16V8ZM11.927 14.9991C11.9513 14.9997 11.9756 15 12 15C13.6569 15 15 13.6569 15 12C15 10.3431 13.6569 9 12 9C10.3431 9 9 10.3431 9 12C9 12.0287 9.0004 12.0573 9.0012 12.0859C9.04599 13.6788 10.3324 14.961 11.927 14.9991ZM7.00146 12.1216C7.065 14.7829 9.20792 16.9293 11.8679 16.9983C11.9118 16.9994 11.9559 17 12 17C14.7614 17 17 14.7614 17 12C17 9.23858 14.7614 7 12 7C9.23858 7 7 9.23858 7 12C7 12.0406 7.00049 12.0812 7.00146 12.1216Z" fill="white"/>
</svg>
