<svg width="24" height="24" viewBox="0 0 24 24" fill="none" xmlns="http://www.w3.org/2000/svg">
<path fill-rule="evenodd" clip-rule="evenodd" d="M8.00097 8C7.44753 8 7 7.55182 7 6.99968C7 6.44818 7.44753 6 8.00097 6C8.55247 6 9 6.44818 9 6.99968C9 7.55182 8.55247 8 8.00097 8Z" fill="white"/>
<path fill-rule="evenodd" clip-rule="evenodd" d="M14.5 9H15C16.6569 9 18 10.3431 18 12V16.6C18 16.8209 17.8209 17 17.6 17H16.4C16.1791 17 16 16.8209 16 16.6V12C16 11.4477 15.5523 11 15 11H14.5C13.6716 11 13 11.6716 13 12.5V16.6C13 16.8209 12.8209 17 12.6 17H11.4C11.1791 17 11 16.8209 11 16.6V9.4C11 9.17909 11.1791 9 11.4 9H12.6632C12.8492 9 13 9.1508 13 9.33682C13.4546 9.12085 13.9632 9 14.5 9ZM7 16.6V9.4C7 9.17909 7.17909 9 7.4 9H8.6C8.82091 9 9 9.17909 9 9.4V16.6C9 16.8209 8.82091 17 8.6 17H7.4C7.17909 17 7 16.8209 7 16.6ZM8 4C5.79086 4 4 5.79086 4 8V16C4 18.2091 5.79086 20 8 20H16C18.2091 20 20 18.2091 20 16V8C20 5.79086 18.2091 4 16 4H8ZM8 2H16C19.3137 2 22 4.68629 22 8V16C22 19.3137 19.3137 22 16 22H8C4.68629 22 2 19.3137 2 16V8C2 4.68629 4.68629 2 8 2Z" fill="white"/>
</svg>
