<svg width="224" height="76" viewBox="0 0 224 76" fill="none" xmlns="http://www.w3.org/2000/svg">
<path fill-rule="evenodd" clip-rule="evenodd" d="M12 0C5.37258 0 0 5.37258 0 12V64C0 70.6274 5.37258 75.9999 12 75.9999H212C218.627 75.9999 224 70.6274 224 63.9999V12C224 5.37257 218.627 0 212 0H12Z" fill="black"/>
<path fill-rule="evenodd" clip-rule="evenodd" d="M18.1427 31.02C17.5117 31.2191 17.1033 31.8633 17.1033 32.838L17.1072 63.5141C17.1072 64.478 17.5029 65.1124 18.1165 65.3242L35.1379 48.1584L18.1427 31.02Z" fill="url(#paint0_linear)"/>
<path fill-rule="evenodd" clip-rule="evenodd" d="M18.1154 65.3158C18.5568 65.4668 19.1101 65.3962 19.713 65.0628L40.4848 53.543L35.1367 48.1499L18.1154 65.3158Z" fill="url(#paint1_linear)"/>
<path fill-rule="evenodd" clip-rule="evenodd" d="M40.4862 53.5396L47.569 49.6124C49.0052 48.8132 49.0052 47.513 47.569 46.7158L40.46 42.7739L35.1353 48.1435L40.4862 53.5396Z" fill="url(#paint2_linear)"/>
<path fill-rule="evenodd" clip-rule="evenodd" d="M40.4603 42.7693L19.7128 31.2652C19.1245 30.9407 18.582 30.8652 18.1425 31.0034L35.1366 48.1389L40.4603 42.7693Z" fill="url(#paint3_linear)"/>
<path fill-rule="evenodd" clip-rule="evenodd" d="M135.806 55.4736C134.727 55.3726 134.5 55.1726 134.5 53.8871L134.508 35.12C134.638 33.9619 134.942 33.6001 135.959 33.0059H131.267L128.809 34.2002H131.362L131.375 53.8743V54.6127C131.375 55.2102 131.268 55.3485 130.687 56.1027L130.686 56.1041C130.625 56.1838 130.558 56.2703 130.486 56.365H136.269L137.482 55.6364C137.203 55.6028 136.922 55.5786 136.639 55.5544L136.639 55.5544C136.362 55.5306 136.084 55.5067 135.806 55.4736ZM77.637 55.6536L73.238 56.6695C71.4557 56.9529 69.8552 57.202 68.1603 57.202C59.6754 57.202 56.4423 50.9038 56.4423 45.9744C56.4423 39.9547 61.0231 34.3733 68.8682 34.3733C70.528 34.3733 72.1247 34.6194 73.5793 35.0195C75.7788 35.6425 76.8614 36.4039 77.5414 36.8821L77.637 36.9493L75.0816 39.3968L74.0043 39.6399L74.7724 38.4054L74.7656 38.3987C73.7237 37.3725 71.8115 35.4892 68.1895 35.4892C63.3364 35.4892 59.6754 39.2095 59.6754 44.6408C59.6754 50.4743 63.8556 55.9615 70.5601 55.9615C72.5301 55.9615 73.5443 55.5624 74.4652 55.1898V50.1889L69.8201 50.4409L72.2822 49.1073H78.801L78.0036 49.881C77.7887 50.0654 77.7596 50.1281 77.6993 50.3752C77.6672 50.6576 77.637 51.5558 77.637 51.8716V55.6536ZM87.7231 56.806C82.5064 56.806 79.7205 52.7102 79.7205 49.0016C79.7205 44.6685 83.2298 40.9609 88.2181 40.9609C93.0391 40.9609 96.0573 44.7695 96.0573 48.7683C96.0573 52.6739 93.0751 56.806 87.7231 56.806ZM92.8119 50.4439C92.8119 51.7324 92.6155 53.0542 91.8278 54.1132C91.0704 55.1703 89.7625 55.7968 88.4819 55.7968C84.5117 55.7968 82.9024 50.4047 82.9024 47.1355C82.9024 45.7078 83.13 44.2526 84.4135 43.0946C85.2011 42.3983 86.2795 41.9718 87.3656 41.9718C91.4311 41.9718 92.8119 47.5297 92.8119 50.4439ZM105.187 56.806C99.9716 56.806 97.1809 52.7102 97.1809 49.0016C97.1809 44.6685 100.689 40.9609 105.679 40.9609C110.503 40.9609 113.525 44.7695 113.525 48.7683C113.525 52.6739 110.538 56.806 105.187 56.806ZM110.279 50.4439C110.279 51.7324 110.087 53.0542 109.293 54.1132C108.538 55.1703 107.228 55.7968 105.945 55.7968C101.968 55.7968 100.365 50.4047 100.365 47.1355C100.365 45.7078 100.594 44.2526 101.875 43.0946C102.661 42.3983 103.751 41.9718 104.833 41.9718C108.902 41.9718 110.279 47.5297 110.279 50.4439ZM125.533 42.5835C126.287 43.2081 127.859 44.5338 127.859 47.048C127.859 49.4984 126.489 50.6535 125.107 51.7469L125.048 51.8066C124.639 52.2209 124.187 52.6773 124.187 53.3658C124.187 54.0845 124.665 54.4804 125.02 54.7748L125.04 54.7916L126.226 55.7143C127.667 56.941 128.98 58.0657 128.98 60.3504C128.98 63.4627 125.993 66.6015 120.349 66.6015C115.594 66.6015 113.295 64.3178 113.295 61.8693C113.295 60.6779 113.883 58.9904 115.824 57.8343C117.831 56.5967 120.541 56.4171 122.031 56.3183L122.09 56.3144L122.021 56.2253C121.579 55.6513 121.103 55.0351 121.103 54.0601C121.103 53.5582 121.237 53.2377 121.381 52.8934L121.381 52.8933C121.398 52.8529 121.415 52.8121 121.432 52.7706L121.409 52.7728C121.058 52.8064 120.704 52.8402 120.383 52.8402C116.902 52.8402 114.935 50.2221 114.935 47.6422C114.935 46.1204 115.624 44.4318 117.038 43.2081C118.908 41.6549 121.139 41.3872 122.912 41.3872H129.674L127.571 42.5835H125.533ZM122.45 57.2362C122.775 57.2362 122.936 57.2362 123.206 57.2715C125.695 59.0611 126.777 59.9514 126.777 61.639C126.777 63.6893 125.105 65.2122 121.954 65.2122C118.448 65.2122 116.181 63.5207 116.181 61.1752C116.181 58.8248 118.281 58.0334 119.007 57.7657C120.38 57.301 122.153 57.2362 122.45 57.2362ZM124.149 50.9864C124.907 50.2225 124.973 49.1674 124.973 48.5683C124.973 46.1884 123.566 42.4819 120.839 42.4819C119.988 42.4819 119.066 42.9124 118.543 43.5782C117.988 44.2675 117.822 45.1618 117.822 46.0218C117.822 48.2378 119.103 51.913 121.922 51.913C122.745 51.913 123.629 51.51 124.149 50.9864ZM150.629 54.1451L149.059 55.6385C148.939 55.7054 148.818 55.7759 148.698 55.8462L148.698 55.8464C148.456 55.9874 148.216 56.1281 147.976 56.2386C146.886 56.7377 145.778 56.8632 144.793 56.8632C143.744 56.8632 142.101 56.7946 140.425 55.5718C138.096 53.9176 137.078 51.0739 137.078 48.596C137.078 43.4657 141.219 40.9495 144.597 40.9495C145.778 40.9495 146.99 41.2476 147.976 41.8762C149.597 42.957 150.03 44.3578 150.267 45.1248L150.275 45.1513L142.561 48.294L140.035 48.4921C140.852 52.6987 143.674 55.1452 146.793 55.1452C148.35 55.1452 149.507 54.6324 150.567 54.1039C150.567 54.1039 150.78 53.9921 150.629 54.1451ZM146.929 44.8894C146.929 45.3503 146.603 45.5483 145.977 45.7778L140.004 48.392C139.993 48.1883 139.977 47.9847 139.962 47.7825L139.962 47.782C139.933 47.3944 139.905 47.0121 139.905 46.6456C139.905 43.0704 142.366 42.0408 143.677 42.0408C145.446 42.0408 146.929 43.5676 146.929 44.8894ZM160.085 54.2838V62.7118H158.425V41.2657H160.085V43.7083C161.166 42.1296 163.142 40.8784 165.437 40.8784C169.553 40.8784 172.325 44.027 172.325 49.0112C172.325 53.9621 169.553 57.1764 165.437 57.1764C163.271 57.1764 161.33 56.0498 160.085 54.2838ZM165.159 42.3842C168.602 42.3842 170.544 45.2494 170.544 49.0059C170.544 52.7684 168.602 55.6581 165.159 55.6581C163.02 55.6581 160.975 53.9019 160.087 52.4213V45.5563C160.975 44.0786 163.02 42.3842 165.159 42.3842ZM174.594 35.3552H176.253V56.8013H174.594V35.3552ZM189.772 55.333C189.833 55.7292 189.917 56.2038 190.028 56.7421H191.94C191.792 56.241 191.68 55.7233 191.61 55.2045C191.542 54.6868 191.516 54.1553 191.516 53.6052V45.947C191.516 44.3075 190.962 43.0533 189.86 42.1855C188.756 41.3089 187.292 40.8696 185.482 40.8696C183.667 40.8696 182.192 41.3157 181.065 42.2032C179.935 43.0916 179.403 44.1202 179.464 45.2929L179.499 45.3763H181.198C181.198 44.5065 181.584 43.7848 182.35 43.2024C183.123 42.6317 184.138 42.3385 185.39 42.3385C186.759 42.3385 187.815 42.6591 188.567 43.2936C189.317 43.927 189.692 44.8007 189.692 45.9117V47.8405H185.821C183.746 47.8405 182.07 48.2719 180.773 49.1397C179.476 50.0036 178.825 51.1332 178.825 52.5246C178.825 53.918 179.274 55.0192 180.167 55.8321C181.063 56.646 182.318 57.047 183.935 57.047C185.278 57.047 186.257 56.7744 187.288 56.2185C188.317 55.6664 189.124 54.9653 189.692 54.123C189.692 54.5338 189.722 54.9378 189.772 55.333ZM184.139 55.519C185.548 55.519 186.562 55.2013 187.597 54.5728C188.626 53.9481 189.326 53.1333 189.693 52.1468V49.1659H185.803C184.317 49.1659 183.087 49.4973 182.12 50.1661C181.15 50.8329 180.659 51.6399 180.659 52.5783C180.659 53.4637 180.971 54.1717 181.589 54.7081C182.209 55.2503 183.057 55.519 184.139 55.519ZM196.222 61.5833C195.838 61.5833 195.233 61.4852 194.878 61.3254L194.593 62.8698C195.007 62.9983 195.715 63.0944 196.252 63.0944C198.04 63.0944 199.342 62.156 200.169 60.2046L208.144 41.2659H206.266L200.712 54.8311L195.103 41.2659H193.252L199.79 56.9197L198.579 59.6859C197.945 61.1646 197.238 61.5833 196.222 61.5833Z" fill="white"/>
<path fill-rule="evenodd" clip-rule="evenodd" d="M115.887 12.1802C112.713 12.1802 110.478 14.4959 110.478 17.6529C110.478 20.8089 112.713 23.1246 115.887 23.1246C119.042 23.1246 121.295 20.8089 121.295 17.6529C121.295 14.4959 119.042 12.1802 115.887 12.1802ZM61.8664 12.192C58.7887 12.192 56.3145 14.3343 56.3145 17.6647C56.3145 20.9802 58.7887 23.1522 61.8664 23.1522C63.6907 23.1522 65.1819 22.3754 66.2125 21.217V17.2673H61.2005V18.9013H64.3724V20.5353C63.8968 20.9951 62.9455 21.4865 61.8664 21.4865C59.7737 21.4865 58.218 19.8684 58.218 17.6647C58.218 15.4282 59.7737 13.8428 61.8664 13.8428C63.0396 13.8428 64.0394 14.4601 64.6102 15.2538L66.1173 14.3809C65.2761 13.1759 63.9285 12.192 61.8664 12.192ZM68.5097 12.3445V22.9243H75.7581V21.2903H70.3647V18.3404H75.6471V16.7064H70.3647V13.9795H75.7581V12.3445H68.5097ZM80.8952 22.9243V13.9795H77.6917V12.3445H85.9547V13.9795H82.7512V22.9243H80.8952ZM94.26 12.3445H92.4051V22.9243H94.26V12.3445ZM99.4261 22.9243V13.9795H96.2225V12.3445H104.486V13.9795H101.282V22.9243H99.4261ZM119.389 17.6554C119.389 15.4665 118.008 13.8336 115.884 13.8336C113.741 13.8336 112.378 15.4665 112.378 17.6554C112.378 19.8275 113.741 21.4773 115.884 21.4773C118.008 21.4773 119.389 19.8275 119.389 17.6554ZM125.316 15.3588L130.836 22.9243H132.629V12.3445H130.773V19.6731L125.365 12.3445H123.461V22.9243H125.316V15.3588Z" fill="white"/>
<defs>
<linearGradient id="paint0_linear" x1="17.1033" y1="31.02" x2="17.1033" y2="65.3242" gradientUnits="userSpaceOnUse">
<stop stop-color="#1E79AF"/>
<stop offset="1" stop-color="#63FFD3"/>
</linearGradient>
<linearGradient id="paint1_linear" x1="27.8818" y1="43.7894" x2="14.7405" y2="61.406" gradientUnits="userSpaceOnUse">
<stop stop-color="#DC4057"/>
<stop offset="1" stop-color="#9E36BB"/>
</linearGradient>
<linearGradient id="paint2_linear" x1="35.2821" y1="42.7739" x2="35.2821" y2="53.3055" gradientUnits="userSpaceOnUse">
<stop stop-color="#FF9676"/>
<stop offset="1" stop-color="#FFD074"/>
</linearGradient>
<linearGradient id="paint3_linear" x1="10.8766" y1="38.0379" x2="23.9774" y2="58.627" gradientUnits="userSpaceOnUse">
<stop stop-color="#51C6AD"/>
<stop offset="1" stop-color="#D5FFA1"/>
</linearGradient>
</defs>
</svg>
