<svg width="24" height="24" viewBox="0 0 24 24" fill="none" xmlns="http://www.w3.org/2000/svg">
<path fill-rule="evenodd" clip-rule="evenodd" d="M5.74194 10.1714C5.76263 9.61955 5.332 9.15538 4.7801 9.13469C4.32833 9.11775 3.89293 8.98992 3.50255 8.76427C3.0244 8.48789 2.41272 8.65146 2.13634 9.12962C1.85996 9.60777 2.02353 10.2194 2.50169 10.4958C3.17154 10.883 3.92426 11.104 4.70519 11.1333C5.25708 11.154 5.72125 10.7233 5.74194 10.1714ZM7.04523 13.3647C6.88999 12.8347 6.33448 12.5309 5.80446 12.6861C5.5743 12.7535 5.33134 12.7875 5.07274 12.7875C4.89133 12.7875 4.71794 12.7705 4.5516 12.7367C4.01037 12.6267 3.48249 12.9764 3.37254 13.5176C3.2626 14.0588 3.61222 14.5867 4.15345 14.6966C4.45226 14.7573 4.75901 14.7875 5.07274 14.7875C5.51936 14.7875 5.95161 14.727 6.36664 14.6055C6.89665 14.4502 7.20047 13.8947 7.04523 13.3647Z" fill="white"/>
<path fill-rule="evenodd" clip-rule="evenodd" d="M20.3554 8.98297C20.203 9.07953 20.0314 9.18121 19.9936 9.40538C19.7938 15.7294 14.9301 21 8 21C6.19823 21 3.68206 20.3605 2.46915 19.3687C2.18902 19.1396 2 18.876 2 18.4303C2 17.7934 2.50758 17.252 3.16713 17.252C4.11452 17.252 6.05266 16.3075 7.36456 15.2278C7.79101 14.8769 8.42121 14.9381 8.77215 15.3646C9.12309 15.791 9.06189 16.4212 8.63544 16.7722C7.7423 17.5072 6.64389 18.1786 5.58539 18.6369C6.39591 18.8604 7.29073 19 8 19C13.9208 19 18 14.4442 18 9C18 8.52272 18.1136 8.27807 18.8403 7.74341C18.8403 7.74341 18.4037 7.30658 18.0708 6.9188C17.9244 6.74828 17.364 6.06432 17.2551 5.94275C16.7084 5.33238 16.0054 5 15.2308 5C13.6863 5 12.4073 6.32644 12.3825 7.98997L12.396 8.11721C12.4896 9.00206 11.8483 9.79531 10.9634 9.88899C10.8402 9.90203 10.7159 9.90082 10.593 9.88537C7.50384 9.49723 5.15715 8.11717 3.21058 5.61385C2.87156 5.17787 2.95016 4.5496 3.38615 4.21058C3.82213 3.87156 4.4504 3.95016 4.78942 4.38615C6.31814 6.35211 8.06371 7.44324 10.3861 7.83409C10.4897 5.15804 12.6109 3 15.2308 3C16.5904 3 17.8288 3.58549 18.7449 4.60843C18.8894 4.76972 19.4684 5.47642 19.5882 5.61593C19.9519 6.03954 20.1953 6.35597 20.4849 6.48425C20.7746 6.61254 21.6439 6.55178 21.8928 7.04484C22.1416 7.5379 21.9436 8.13931 21.4505 8.38813C20.8042 8.71427 20.688 8.77228 20.3554 8.98297Z" fill="white"/>
</svg>
